<svg width="462" height="84" viewBox="0 0 231 42" fill="none" xmlns="http://www.w3.org/2000/svg">
  <path d="M231 0H0V42H231V0Z" fill="#F5842D"/>
  <path d="M10.3645 9.09644C12.2235 7.5125 14.7956 7.23148 17.1384 7.20593C19.2521 7.25703 21.5694 7.58914 23.1229 9.19863C24.6508 10.8081 24.88 13.1585 24.7527 15.2789C22.9446 15.2789 21.162 15.2789 19.3539 15.2789C19.2775 14.0271 19.2775 12.4943 18.157 11.6767C16.8328 10.8081 14.6173 11.2424 14.0316 12.8264C13.4459 14.2059 14.0316 15.8154 15.1521 16.7096C17.5204 18.6767 20.6527 19.5198 22.8173 21.768C24.2943 23.1731 25.0583 25.2424 24.9819 27.2607C24.9819 29.4322 24.3198 31.8081 22.5117 33.1366C20.398 34.695 17.6223 34.7972 15.1011 34.7461C12.9366 34.7205 10.5682 34.0818 9.19308 32.268C7.89433 30.5052 7.79247 28.1804 7.89433 26.0599C9.72786 26.0599 11.5614 26.0599 13.4204 26.0599C13.4968 27.1585 13.4459 28.3337 13.8788 29.3556C14.5918 30.8373 16.6291 31.0928 18.0042 30.4286C19.7359 29.4067 19.7359 26.6986 18.2589 25.4213C15.7887 23.0964 12.2999 22.1512 10.0335 19.5709C8.83656 18.268 8.14899 16.5052 8.17445 14.7424C8.17445 12.6986 8.7347 10.476 10.3645 9.09644Z" fill="white"/>
  <path d="M101.863 10.2446C103.238 8.30301 105.632 7.40885 107.949 7.28111C110.7 7.02563 113.832 7.48549 115.818 9.60593C117.423 11.241 117.856 13.6424 117.779 15.8395C115.946 15.8651 114.087 15.8395 112.228 15.8395C112.151 14.6388 112.202 13.3359 111.464 12.314C110.725 11.2921 109.325 11.0366 108.179 11.2921C107.084 11.5475 106.396 12.5694 106.09 13.5913C105.479 15.6607 105.556 17.8322 105.505 19.9526C105.53 22.5329 105.428 25.1643 105.912 27.6935C106.116 28.8432 106.574 30.1716 107.771 30.6059C109.223 31.0913 110.776 30.7848 112.202 30.3505C112.202 28.3578 112.202 26.3906 112.202 24.4234C111.184 24.4234 110.19 24.4234 109.172 24.4234C109.172 23.0694 109.172 21.6899 109.172 20.3359C112.049 20.3359 114.902 20.3359 117.779 20.3359C117.779 24.8578 117.779 29.3797 117.779 33.876C114.087 34.5147 110.318 35.0767 106.6 34.4636C104.817 34.1826 103.009 33.4672 101.889 32.011C100.895 30.7337 100.488 29.1497 100.233 27.5658C99.7749 24.4745 99.8767 21.3578 99.9022 18.2665C99.9531 15.5329 100.233 12.5694 101.863 10.2446Z" fill="white"/>
  <path d="M208.386 9.17159C210.22 7.5621 212.766 7.28108 215.109 7.22998C217.274 7.28108 219.693 7.58764 221.247 9.27378C222.775 10.8577 222.953 13.2081 222.876 15.303C221.068 15.303 219.286 15.303 217.478 15.303C217.376 14.1533 217.376 12.8249 216.561 11.9307C215.721 11.0876 214.32 11.1132 213.301 11.573C212.257 12.0329 211.85 13.2847 211.952 14.3577C211.977 15.4563 212.741 16.376 213.581 17.0147C215.16 18.2154 217.019 18.9818 218.7 20.0548C220.202 21.0001 221.629 22.2008 222.393 23.8358C223.284 25.7008 223.233 27.8723 222.749 29.8139C222.316 31.5511 221.119 33.084 219.515 33.8249C217.35 34.8212 214.906 34.8212 212.563 34.7446C210.602 34.6424 208.539 33.9526 207.317 32.3176C205.967 30.5548 205.865 28.2044 205.942 26.084C207.801 26.084 209.66 26.084 211.519 26.084C211.595 27.4891 211.442 29.1752 212.588 30.2227C213.76 31.0402 215.568 31.0657 216.637 30.0438C217.58 28.9709 217.656 27.2081 216.79 26.0329C216.052 25.011 214.957 24.3468 213.887 23.6825C212.053 22.584 210.118 21.5876 208.565 20.1059C207.164 18.7774 206.247 16.938 206.247 14.9964C206.196 12.876 206.757 10.6022 208.386 9.17159Z" fill="white"/>
  <path d="M57.4507 7.74097C62.0346 7.74097 66.6439 7.74097 71.2532 7.74097C71.2532 9.12053 71.2532 10.4745 71.2532 11.8541C68.4774 11.8797 65.7271 11.8541 62.9768 11.8797C62.9768 14.1023 62.9768 16.3249 62.9768 18.5475C65.5998 18.5731 68.2227 18.5475 70.8712 18.5475C70.8712 19.9015 70.8712 21.2556 70.8712 22.6096C68.2482 22.6096 65.6252 22.6096 62.9768 22.6096C62.9768 26.4928 62.9768 30.376 62.9768 34.2592C61.1433 34.2592 59.3097 34.2592 57.4762 34.2592C57.4507 25.4453 57.4762 16.6059 57.4507 7.74097Z" fill="white"/>
  <path d="M75.888 7.74097C81.8724 7.71542 87.8314 7.74097 93.8159 7.74097C93.8159 9.22272 93.8159 10.6789 93.8159 12.1607C91.7532 12.1607 89.6904 12.1607 87.6277 12.1607C87.6277 19.5439 87.6277 26.9016 87.6277 34.2848C85.7942 34.2848 83.9606 34.2848 82.1271 34.2848C82.1271 26.9016 82.1271 19.5439 82.1271 12.1607C80.0389 12.1607 77.9762 12.1607 75.888 12.1607C75.888 10.6789 75.888 9.22272 75.888 7.74097Z" fill="white"/>
  <path d="M150.681 7.74097C153.66 7.74097 156.64 7.74097 159.619 7.74097C161.02 13.7446 162.37 19.7483 163.796 25.7519C165.349 19.7738 166.75 13.7446 168.227 7.74097C171.104 7.74097 173.982 7.74097 176.885 7.74097C176.885 16.5804 176.885 25.4198 176.885 34.2848C175.103 34.2848 173.32 34.2848 171.512 34.2848C171.512 31.2702 171.385 28.2556 171.512 25.241C171.588 22.9672 171.436 20.668 171.486 18.3943C171.588 16.887 171.486 15.3797 171.385 13.8724C169.755 20.6935 167.998 27.4891 166.291 34.2848C164.509 34.2848 162.726 34.2848 160.969 34.2848C159.365 27.5147 157.735 20.7446 156.156 13.9745C155.901 16.4271 156.08 18.9052 156.029 21.3578C156.029 25.6497 156.029 29.9672 156.029 34.2848C154.246 34.2848 152.438 34.2848 150.655 34.2848C150.681 25.4453 150.681 16.5804 150.681 7.74097Z" fill="white"/>
  <path d="M184.627 7.74097C189.465 7.74097 194.278 7.74097 199.091 7.74097C199.091 9.12053 199.091 10.5001 199.091 11.8541C196.112 11.8541 193.132 11.8541 190.178 11.8541C190.178 14.0001 190.178 16.1461 190.178 18.2921C192.929 18.2921 195.653 18.2921 198.404 18.2921C198.404 19.6461 198.404 21.0001 198.404 22.3541C195.653 22.3541 192.929 22.3541 190.178 22.3541C190.178 24.9344 190.178 27.5402 190.178 30.1205C193.234 30.1205 196.316 30.1205 199.371 30.1205C199.371 31.5001 199.371 32.8797 199.371 34.2592C194.457 34.2592 189.516 34.2592 184.601 34.2592C184.601 25.4453 184.601 16.5804 184.627 7.74097Z" fill="white"/>
  <path d="M50.2439 19.2884C50.2184 16.6314 50.1675 13.8723 49.0724 11.3942C48.3594 9.73363 46.9079 8.40516 45.2017 7.81757C43.088 7.10224 40.7961 7.07669 38.606 7.40881C37.1545 7.66428 35.7029 8.20078 34.6334 9.24823C33.2837 10.5001 32.6725 12.2884 32.3414 14.0511C31.8067 17.0657 32.0104 20.1059 31.9849 23.146C32.0359 25.9563 32.1377 28.9709 33.6147 31.449C34.8626 33.5183 37.2818 34.5402 39.6247 34.6679C42.0694 34.8212 44.7178 34.7446 46.806 33.3139C48.4103 32.2409 49.3016 30.4271 49.7091 28.5876C50.3967 25.573 50.1929 22.4052 50.2439 19.2884ZM44.4631 25.7008C44.3104 27.0548 44.234 28.5365 43.419 29.7117C42.6296 30.8614 40.9998 31.0657 39.8029 30.5292C38.8861 30.0949 38.3768 29.0986 38.1476 28.1278C37.6129 25.8285 37.7147 23.4526 37.6638 21.1278C37.7147 18.7519 37.6129 16.376 38.1222 14.0511C38.3514 12.9782 38.8861 11.8541 39.9557 11.4198C41.1017 11.011 42.5532 11.1643 43.3427 12.1862C44.2085 13.2847 44.3103 14.7665 44.4886 16.0949C44.6414 19.2884 44.6159 22.5073 44.4631 25.7008Z" fill="white"/>
  <path d="M138.126 7.76651C135.682 7.74097 133.211 7.76651 130.767 7.74097C128.322 16.5804 125.877 25.4198 123.433 34.2592C125.266 34.2848 127.1 34.2592 128.933 34.2592C129.417 32.2921 129.952 30.3249 130.436 28.3578C132.957 28.3578 135.452 28.3578 137.973 28.3578C138.457 30.3249 138.941 32.2921 139.425 34.2592C141.386 34.2592 143.347 34.2592 145.308 34.2592C142.914 25.4453 140.495 16.6059 138.126 7.76651ZM131.556 24.2702C132.346 20.4636 133.237 16.657 134.077 12.876C135.045 16.657 135.885 20.4636 136.777 24.2702C135.019 24.2702 133.288 24.2702 131.556 24.2702Z" fill="white"/>
</svg>
